# xmcd
#
# Track frame offsets: 
#        150
#        9275
#        19412
#        30275
#        40950
#        50100
#        60100
#        69275
#        80475
#        91375
#        102700
#        112550
#        123337
#        134387
#        146325
#        159050
#        169487
#        178687
#        193087
#        206350
#        218225
#        233362
#
# Disc length: 3266 seconds
#
# Revision: 0
# Processed by: cddbd v1.4PL0 Copyright (c) Steve Scherf et al.
# Submitted via: ExactAudioCopy v0.90a11
#
DISCID=1b0cc016
DTITLE=Lynn Anderson - Anthology: The Chart Years
DYEAR=1900
DGENRE=
TTITLE0=Ride, Ride, Ride
TTITLE1=If I Kissed You (Will You Go Away)
TTITLE2=Keeping Up Appearances
TTITLE3=Too Much Of You
TTITLE4=Beggars Can't Be Choosers
TTITLE5=Promises, Promises
TTITLE6=No Another Time
TTITLE7=Big Girls Don't Cry
TTITLE8=Flattery Will Get You Everywhere
TTITLE9=Our House Is Not A Home (If It's Never Been Loved In)
TTITLE10=That's A No No
TTITLE11=He'd Still Love Me
TTITLE12=I've Been Everywhere
TTITLE13=Rocky Top
TTITLE14=I'm Alright
TTITLE15=It Wasn't God Who Made Honky Tonk Angels
TTITLE16=Jim Dandy
TTITLE17=He Even Woke Me Up To Say Goodbye
TTITLE18=I Live To Love You
TTITLE19=Strangers
TTITLE20=Sing Me A Sad Song
TTITLE21=Auctioneer
EXTD=
EXTT0=
EXTT1=
EXTT2=
EXTT3=
EXTT4=
EXTT5=
EXTT6=
EXTT7=
EXTT8=
EXTT9=
EXTT10=
EXTT11=
EXTT12=
EXTT13=
EXTT14=
EXTT15=
EXTT16=
EXTT17=
EXTT18=
EXTT19=
EXTT20=
EXTT21=
PLAYORDER=
